<?xml version="1.0" encoding="UTF-8"?>
<svg width="824px" height="824px" viewBox="0 0 824 824" version="1.1" xmlns="http://www.w3.org/2000/svg" xmlns:xlink="http://www.w3.org/1999/xlink">
    <title>icon</title>
    <defs>
        <linearGradient x1="50%" y1="0%" x2="50%" y2="100%" id="linearGradient-1">
            <stop stop-color="#000000" stop-opacity="0" offset="0%"></stop>
            <stop stop-color="#000000" stop-opacity="0.1" offset="100%"></stop>
        </linearGradient>
        <rect id="path-2" x="0" y="0" width="550" height="450"></rect>
    </defs>
    <g id="页面-1" stroke="none" stroke-width="1" fill="none" fill-rule="evenodd">
        <g id="icon">
            <g id="编组" fill-rule="nonzero">
                <rect id="矩形" fill="#FFFFFF" x="0" y="0" width="824" height="824" rx="184"></rect>
                <rect id="矩形" fill-opacity="0.41" fill="url(#linearGradient-1)" x="0" y="0" width="824" height="824" rx="184"></rect>
            </g>
            <g id="icon-plain" transform="translate(137, 187)">
                <mask id="mask-3" fill="white">
                    <use xlink:href="#path-2"></use>
                </mask>
                <g id="path-1"></g>
                <g id="编组" mask="url(#mask-3)" fill-rule="nonzero">
                    <g transform="translate(299.5209, 261.0386) rotate(29) translate(-299.5209, -261.0386)translate(66.4059, -6.5518)">
                        <path d="M121.56718,313.227675 L120.824022,312.728741 C96.9617075,295.474913 71.949822,262.904977 88.3341171,205.690031 C89.9958437,199.862163 96.0537945,196.46749 101.896736,198.089993 C104.687736,198.868626 107.053182,200.726491 108.469688,203.252511 C109.886194,205.778531 110.236979,208.764453 109.444427,211.549602 L109.39798,211.700443 C105.542852,225.171656 93.8032898,266.165451 133.67832,294.999186 C138.381791,298.464891 139.537301,305.008296 136.304961,309.873294 C133.072621,314.738292 126.589189,316.213948 121.56718,313.227675 L121.56718,313.227675 Z M16.0388516,336.584739 C19.6237573,335.158209 23.6954358,335.722439 26.7565725,338.069938 C60.3147669,363.736022 94.6045067,351.332295 105.867983,347.271206 C111.55314,345.210979 117.833272,348.146086 119.895076,353.826964 C121.961982,359.512489 118.850011,365.662139 113.334391,367.843523 C75.6307728,381.477181 42.0145198,377.323266 13.4261893,355.4514 C10.2973254,353.053616 8.69835247,349.161363 9.23883026,345.258443 C9.77930805,341.355524 12.3759447,338.043408 16.0388516,336.584739 L16.0388516,336.584739 Z" id="形状" fill="#BE1931"></path>
                        <path d="M103.628529,326.561089 C108.969141,329.113602 113.555101,330.94017 116.956839,332.251553 L119.336895,333.188255 C122.972496,334.652355 127.106432,334.049171 130.181487,331.605918 C133.256542,329.162666 134.805543,325.250531 134.244996,321.343179 C133.684449,317.435826 131.099515,314.126875 127.463913,312.662776 L124.909707,311.655821 C110.466835,305.977066 76.6003885,292.711026 59.3595003,247.597124 C57.0080749,242.183248 50.8495402,239.592982 45.3806711,241.717658 C39.9118021,243.842334 37.068058,249.93002 38.9258545,255.535672 C55.1798907,298.061935 84.251396,317.276032 103.628529,326.561089 L103.628529,326.561089 Z" id="路径" fill="#BE1931"></path>
                        <path d="M105.489702,351.089048 C111.354632,351.717983 122.446997,352.090686 122.446997,352.090686 C128.483522,352.347983 133.584667,347.639275 133.840723,341.573493 C134.096779,335.507711 129.410783,330.381843 123.374259,330.124545 L120.627246,330.019723 C105.176752,329.49561 68.9324173,328.295975 37.8691579,291.677977 C33.8917511,287.30521 27.1816635,286.885155 22.6949013,290.728062 C18.2081392,294.570969 17.5580634,301.294994 21.2248136,305.933839 C50.4915045,340.432093 84.1974601,348.7946 105.489702,351.089048 L105.489702,351.089048 Z" id="路径" fill="#BE1931"></path>
                        <path d="M202.235829,366.860028 L202.96676,367.360271 C227.888017,383.065565 267.439492,394.09417 314.381488,357.425218 C319.175846,353.692177 320.057628,346.774813 316.35384,341.952596 C314.588602,339.647565 311.979295,338.143826 309.104396,337.774753 C306.229498,337.405681 303.32654,338.201769 301.039101,339.986526 L300.92308,340.102861 C289.877905,348.734956 256.255091,375.003514 214.615244,348.769857 C209.642743,345.686066 203.131368,347.062348 199.823376,351.896353 C196.515383,356.730358 197.577344,363.317362 202.235829,366.860028 L202.235829,366.860028 Z M219.998818,473.656024 C219.979416,469.797054 217.939568,466.231994 214.626845,464.267749 C178.277544,442.699146 176.96651,406.193063 176.525631,394.198872 C176.425846,391.288723 175.176313,388.537741 173.052322,386.552008 C170.928332,384.566275 168.104157,383.508721 165.202006,383.612341 C159.157324,383.845012 154.620913,389.021942 154.64394,394.97832 C156.094376,435.11407 172.511313,464.791258 203.477251,483.160634 C206.870504,485.169872 211.078648,485.196328 214.496761,483.229914 C217.914873,481.263499 220.015925,477.60741 219.998818,473.656024 Z" id="形状" fill="#BE1931"></path>
                        <path d="M195.14364,389.338086 C191.592154,386.072636 188.171661,382.66955 184.890118,379.136746 L183.144342,377.28826 C180.431223,374.475365 179.435959,370.439338 180.533458,366.700513 C181.630956,362.961688 184.654481,360.088081 188.465098,359.162151 C192.275716,358.236221 196.294504,359.39864 199.007623,362.211535 L200.893061,364.198659 C211.542291,375.428219 236.471967,401.792269 284.527349,401.052874 C290.360106,401.274024 295.00048,405.984036 295.093365,411.777453 C295.18625,417.57087 290.699217,422.425079 284.876504,422.830365 C239.591086,423.546654 210.960367,403.790946 195.14364,389.326533 L195.14364,389.338086 Z" id="路径" fill="#BE1931"></path>
                        <path d="M172.233892,395.893132 C169.438973,390.667534 164.932166,380.48402 164.932167,380.48402 C162.423831,374.959449 164.871741,368.448748 170.399727,365.941962 C175.927712,363.435176 182.442438,365.881574 184.950773,371.406145 L186.068741,373.920018 C192.368954,388.118746 207.100506,421.415927 252.727557,436.650465 C258.31606,438.6933 261.263626,444.809225 259.378096,450.449716 C257.492566,456.090207 251.458504,459.207419 245.763551,457.483025 C202.768382,443.121361 182.342182,414.863564 172.233892,395.90477 L172.233892,395.893132 Z" id="路径" fill="#BE1931"></path>
                        <path d="M174.167424,87.7053932 C188.903714,84.5727835 220.038194,77.3409962 223.292265,54.4112239 C233.635561,62.7027414 253.276199,178.341461 151.935151,158.835433 C140.650499,148.878625 174.155802,87.7170383 174.155802,87.7170383 L174.167424,87.7053932 Z M93.164315,426.621169 C82.2399361,424.757906 27.234525,418.550914 0.423309072,455.769579 C-4.92266361,465.435252 41.6454076,462.617068 67.9452692,480.411224 L94.8494583,440.479182 L93.164315,426.621169 Z" id="形状" fill="#BE1931"></path>
                        <path d="M106.477081,437.113086 C112.293245,446.571682 138.628836,495.318938 114.200947,534.107327 C107.256448,542.681725 93.3605345,497.613567 67.0365755,479.84816 L93.0068449,440.719685 L106.477081,437.113086 Z M117.504528,136.834644 C107.896225,154.379002 129.334606,193.400075 150.354223,213.271272 C157.822178,208.733938 152.157234,176.879526 149.93546,158.416066 C148.702433,148.09654 156.68221,130.959378 134.99955,126.131189 C113.31689,121.291366 117.504528,136.834644 117.504528,136.834644 Z" id="形状" fill="#BE1931"></path>
                        <path d="M152.06515,189.788824 C144.355848,184.709614 128.344222,203.530522 161.150265,238.423998 C193.956309,273.305877 186.496077,240.43017 186.745147,227.372658 C187.029798,210.66229 152.065149,189.800421 152.06515,189.800421 L152.06515,189.788824 Z" id="路径" fill="#BE1931"></path>
                        <path d="M104.888382,351.916638 C95.1661651,361.80853 56.2199062,422.804668 87.7855452,450.916638 L141.665221,370.368376 L104.888382,351.916638 L104.888382,351.916638 Z" id="路径" fill="#89021F"></path>
                        <path d="M390.329005,233.295353 C387.692433,218.413752 382.712243,186.739365 402.867368,175.14407 C391.231298,168.618074 275.901791,193.626622 332.324427,280.573862 C345.870547,287.356236 390.329005,233.295353 390.329005,233.295353 L390.329005,233.295353 Z" id="路径" fill="#BE1931"></path>
                        <path d="M365.002438,303.481915 C352.376358,318.910944 308.358832,313.632592 282.191571,301.602589 C283.604766,293.006416 315.123631,286.370773 332.997063,281.53325 C342.982092,278.83027 355.839843,265.060151 368.373254,283.308169 C380.918249,301.556186 365.002439,303.493515 365.002438,303.493515 L365.002438,303.481915 Z" id="路径" fill="#BE1931"></path>
                        <path d="M305.048107,292.5297 C312.697104,297.529929 300.917648,318.633168 255.918008,302.280147 C210.918368,285.915761 244.621028,280.495058 256.812352,275.494829 C272.428075,269.096809 305.059875,292.541064 305.059875,292.541064 L305.048107,292.5297 Z" id="路径" fill="#BE1931"></path>
                        <path d="M451.997261,160.04047 C477.285893,188.34056 466.352794,255.387315 438.973324,283.338021 C396.233784,326.964414 358.984155,326.894537 327.796789,312.232063 C319.573603,305.733524 316.793606,246.373212 370.197589,235.227868 C423.601573,224.082524 445.08231,187.071132 451.997261,160.04047 L451.997261,160.04047 Z" id="路径" fill="#DD2E44"></path>
                        <path d="M228.951022,219.329303 C225.923056,217.294361 224.980825,213.28959 226.787453,210.133473 C270.760514,133.071962 275.052566,73.6357902 238.880045,42.7624205 C236.985228,41.1425589 236.104787,38.6421385 236.570377,36.2030435 C237.035967,33.7639486 238.776853,31.7567356 241.13726,30.9375024 C243.497668,30.1182692 246.118994,30.6114768 248.013812,32.2313387 C272.234081,52.8871213 303.249122,104.358219 238.973605,216.995512 C237.062418,220.336373 232.787673,221.510361 229.41882,219.619575 L228.951022,219.329303 L228.951022,219.329303 Z M245.41753,230.359653 L244.949731,230.034548 C243.495228,228.884826 242.561704,227.207427 242.355426,225.372982 C242.149148,223.538536 242.687094,221.698045 243.850404,220.258174 C325.025143,118.953114 384.716236,128.265052 413.076522,142.836725 C414.730893,143.679221 415.978452,145.142055 416.542657,146.900967 C417.106862,148.659879 416.941104,150.569566 416.082128,152.206718 C414.300648,155.618984 410.072255,156.954238 406.632597,155.190718 C364.261746,133.420289 310.347965,159.602858 254.808585,228.919902 C252.537667,231.761657 248.446085,232.388941 245.41753,230.359653 L245.41753,230.359653 Z" id="形状" fill="#BE1931"></path>
                        <path d="M157.502659,347.432793 C149.829583,359.036787 132.192961,386.198556 120.30542,404.201123 C113.754675,399.685859 103.470463,392.328085 94.8811988,381.601409 C81.3216139,364.639925 112.17425,327.582008 123.981625,322.201123 L157.502659,347.432793 Z" id="路径" fill="#A0041E"></path>
                        <path d="M187.237328,303.191194 C178.499443,315.995855 158.42339,345.950649 144.883182,365.812358 C137.269743,360.71367 125.299075,352.439889 115.261049,340.434796 C99.40167,321.442182 134.622609,280.652675 148.209669,274.812358 L187.237328,303.202783 L187.237328,303.191194 Z" id="路径" fill="#BE1931"></path>
                        <path d="M243.36975,216.012904 C226.546781,241.110604 178.138775,320.285514 172.905478,328.095759 C156.846663,317.184729 109.364904,290.583265 138.807995,252.126548 C168.239507,213.681487 215.26972,196.918601 243.381329,216.012904 L243.36975,216.012904 Z" id="路径" fill="#DD2E44"></path>
                        <path d="M170.639501,396.248649 C165.085091,409.155775 125.5699,469.661831 87.3191533,450.482192 L139.41345,368.507087 L170.639501,396.248649 Z" id="路径" fill="#89021F"></path>
                        <path d="M155.794466,346.597323 C147.976256,358.090415 128.022318,383.634479 115.909927,401.458609 C122.584578,405.914643 134.848665,413.866057 148.034601,417.940143 C168.88705,424.375349 191.41983,381.747898 191.909927,368.680727 L155.794466,346.608897 L155.794466,346.597323 Z" id="路径" fill="#A0041E"></path>
                        <path d="M184.029007,303.095264 C175.26213,315.940293 154.434811,342.917829 140.849678,362.842153 C148.488377,367.94529 160.960136,378.584505 176.014249,383.304037 C199.823487,390.790189 224.972434,343.060157 225.371997,328.36684 L184.029007,303.095264 Z" id="路径" fill="#BE1931"></path>
                        <path d="M243.768587,215.876518 C226.873387,240.895821 172.606423,316.011833 167.350656,323.797682 C183.478421,334.674629 225.105962,368.421056 249.629001,326.679608 C274.163668,284.938161 271.989269,234.911175 243.768587,215.876518 Z M218.699041,2.68370148 C183.083075,-10.0990357 125.060331,25.0186297 109.374422,60.7057079 C84.8862656,116.415201 98.8280033,150.765902 124.0022,174.076967 C133.095144,179.224924 189.083022,159.644094 179.524967,106.212253 C169.955284,52.76879 196.234122,19.1501913 218.699041,2.6720805 L218.699041,2.68370148 Z" id="形状" fill="#DD2E44"></path>
                        <path d="M223.692124,198.647477 C216.463589,195.425346 207.081625,201.087424 202.588526,211.220792 C198.095427,221.354161 200.202294,232.129621 207.44247,235.351752 C214.566243,238.527186 223.948207,232.876782 228.441306,222.743414 C232.922766,212.59837 230.827538,201.82291 223.692124,198.647477 Z M243.80631,232.374783 C236.123808,240.34839 234.401066,251.182222 240.08146,256.704207 C245.680374,262.144472 256.435876,260.078105 264.130017,252.116173 C271.812519,244.142566 273.546902,233.29706 267.936347,227.856795 C262.255952,222.33481 251.500451,224.412851 243.80631,232.374783 L243.80631,232.374783 Z" id="形状" fill="#BE1931"></path>
                        <path d="M227.450634,190.197663 C220.165753,186.994648 210.710657,192.611528 206.182535,202.696381 C201.666142,212.769629 203.777702,223.469554 211.074315,226.684174 C218.253618,229.840768 227.708714,224.212282 232.236837,214.139034 C236.76496,204.065786 234.641669,193.354257 227.450634,190.197663 Z M250.173365,226.080707 C242.430979,234.007007 240.694808,244.788168 246.419481,250.277391 C252.073768,255.685379 262.901378,253.631272 270.655496,245.704972 C278.397882,237.790278 280.145784,227.020722 274.491496,221.601129 C268.766822,216.111906 257.927482,218.177617 250.173365,226.092313 L250.173365,226.080707 Z" id="形状" fill="#292F33"></path>
                        <path d="M143.202618,268.777091 C139.876488,280.680508 139.320201,295.469953 173.833151,318.766807 C197.927315,335.039833 224.559537,346.734621 235.731627,328.64189 C221.650622,330.125471 208.322921,325.836996 181.354609,307.639951 C152.589955,288.214316 143.202618,268.777091 143.202618,268.777091 Z" id="路径" fill="#EA596E"></path>
                        <path d="M122.508226,322.751694 C120.4091,331.355138 120.455235,342.179581 147.040321,360.368386 C165.586446,373.051453 185.908754,382.496539 193.693974,369.579682 C183.198344,370.210913 173.083324,366.657316 152.322737,352.44293 C130.17811,337.270007 122.508226,322.751694 122.508226,322.751694 Z" id="路径" fill="#DD2E44"></path>
                        <path d="M98.7440784,358.786471 C96.4649022,367.221541 96.2194522,377.753792 121.605969,394.739797 C139.325104,406.592924 158.844203,415.236553 166.780412,402.468082 C156.541651,403.360253 146.793789,400.150755 126.959111,386.884059 C105.80368,372.725192 98.7440777,358.786471 98.7440784,358.786471 L98.7440784,358.786471 Z" id="路径" fill="#BE1931"></path>
                        <path d="M125.864705,154.760508 C124.60294,153.908704 123.545221,152.789119 122.767151,151.481779 C106.708779,124.810138 106.708779,96.6502804 122.767151,67.8160734 C125.561936,62.781714 132.164618,60.5145083 137.206876,63.3049153 C142.272425,66.1069494 144.345224,72.0016842 141.562084,77.0360436 L141.038061,77.9661797 C136.030738,86.9652424 122.720571,110.86973 140.688713,140.727085 C143.169483,144.927073 142.416073,150.281142 138.872203,153.636012 C135.328333,156.990882 129.93338,157.457275 125.864705,154.760508 L125.864705,154.760508 Z M344.789575,302.303283 C340.69496,299.573836 339.0618,294.362412 340.868012,289.78955 C342.674224,285.216687 347.430532,282.521106 352.288916,283.316888 C386.757938,288.781435 403.969159,267.527835 410.443746,259.517041 L419.22403,265.295509 L426.723372,272.655207 C405.937154,298.292073 379.794264,308.825859 349.005042,303.93102 C347.495049,303.712303 346.054037,303.155879 344.789575,302.303283 L344.789575,302.303283 Z" id="形状" fill="#EA596E"></path>
                    </g>
                </g>
            </g>
        </g>
    </g>
</svg>